<?xml version="1.0" ?>
<!DOCTYPE svg  PUBLIC '-//W3C//DTD SVG 1.1//EN'  'http://www.w3.org/Graphics/SVG/1.1/DTD/svg11.dtd'>
<!-- Uploaded to: SVG Repo, www.svgrepo.com, Generator: SVG Repo Mixer Tools -->
<svg fill="#000000" width="800px" height="800px" viewBox="0 0 100 100" version="1.1" xml:space="preserve" xmlns="http://www.w3.org/2000/svg" xmlns:xlink="http://www.w3.org/1999/xlink">
<g id="Grid"/>
<g id="_x31_"/>
<g id="_x32_"/>
<g id="_x33_"/>
<g id="_x34_"/>
<g id="_x35_"/>
<g id="_x36_"/>
<g id="_x37_"/>
<g id="_x38_"/>
<g id="_x39_"/>
<g id="_x31_0"/>
<g id="_x31_1">
<path d="M26,49.1H11.5c-0.5,0-1-0.3-1.3-0.7C10,48,10,47.5,10.2,47l8.2-19.2c0.2-0.6,0.8-0.9,1.4-0.9h62c0.8,0,1.5,0.7,1.5,1.5v0.1   c0,0.8-0.7,1.5-1.5,1.5H35.2l-7.8,18.3C27.1,48.7,26.6,49.1,26,49.1z M13.8,46.1H25l7-16.2H20.8L13.8,46.1z M81.8,49.1H26   c-0.5,0-1-0.3-1.3-0.7c-0.3-0.4-0.3-1-0.1-1.4l8.2-19.2c0.2-0.6,0.8-0.9,1.4-0.9h47.6c0.8,0,1.5,0.7,1.5,1.5v19.2   C83.3,48.4,82.6,49.1,81.8,49.1z M28.3,46.1h52V29.9H35.2L28.3,46.1z M32.1,73.8H13.3c-0.4,0-0.9-0.2-1.2-0.5   c-0.3-0.3-0.4-0.8-0.3-1.2l4.7-24.7c0.1-0.7,0.8-1.2,1.5-1.2h19.2c0.5,0,0.9,0.2,1.2,0.6c0.3,0.4,0.4,0.8,0.3,1.3l-5.2,24.7   C33.4,73.3,32.8,73.8,32.1,73.8z M15.2,70.8h15.7l4.5-21.7H19.3L15.2,70.8z M30.5,81.2H11.9c-0.4,0-0.9-0.2-1.2-0.5   c-0.3-0.3-0.4-0.8-0.3-1.2l1.4-7.4c0.1-0.7,0.8-1.2,1.5-1.2h18.8c0.5,0,0.9,0.2,1.2,0.6c0.3,0.4,0.4,0.8,0.3,1.3L32,80   C31.9,80.7,31.3,81.2,30.5,81.2z M13.7,78.2h15.6l0.9-4.4H14.6L13.7,78.2z M44.9,63.2H34.3c-0.5,0-0.9-0.2-1.2-0.6   c-0.3-0.4-0.4-0.8-0.3-1.3l3-14.2c0.1-0.7,0.8-1.2,1.5-1.2h12.6c0.8,0,1.5,0.7,1.5,1.5v9.1C51.4,60.3,48.5,63.2,44.9,63.2z    M36.1,60.2h8.7c1.9,0,3.5-1.6,3.5-3.5v-7.6h-9.9L36.1,60.2z M90.7,39.5h-8.9c-0.8,0-1.5-0.7-1.5-1.5v-7.6c0-0.8,0.7-1.5,1.5-1.5   h8.9c0.8,0,1.5,0.7,1.5,1.5V38C92.2,38.9,91.5,39.5,90.7,39.5z M83.3,36.5h5.9v-4.6h-5.9V36.5z M72.8,38c0-0.8-0.7-1.5-1.5-1.5   H42.1c-0.8,0-1.5,0.7-1.5,1.5s0.7,1.5,1.5,1.5h29.2C72.1,39.5,72.8,38.9,72.8,38z M38.8,29.9H25.5c-0.8,0-1.5-0.7-1.5-1.5v-6.5   c0-0.8,0.7-1.5,1.5-1.5h13.3c0.8,0,1.5,0.7,1.5,1.5v6.5C40.3,29.2,39.6,29.9,38.8,29.9z M27,26.9h10.3v-3.5H27V26.9z"/>
</g>
<g id="_x31_2"/>
<g id="_x31_3"/>
<g id="_x31_4"/>
<g id="_x31_5"/>
<g id="_x31_6"/>
<g id="_x31_7"/>
<g id="_x31_8"/>
<g id="_x31_9"/>
<g id="_x32_0"/>
<g id="_x32_1"/>
<g id="_x32_2"/>
<g id="_x32_3"/>
<g id="_x32_4"/>
<g id="_x32_5"/>
</svg>