<?xml version="1.0" encoding="utf-8" ?><svg xmlns="http://www.w3.org/2000/svg" xmlns:xlink="http://www.w3.org/1999/xlink" width="700" height="700" viewBox="0 0 700 700"><path fill="#DEDFDF" transform="matrix(1.39139 -0.00813307 0.00813307 1.39139 0 4.06653)" d="M76.357 265.859C82.3187 265.621 89.5029 265.889 95.6061 265.91L125.442 265.822L229.04 265.782L284.481 265.781L300.56 265.769C304.352 265.768 308.864 265.633 312.55 266.149C316.717 272.466 321.718 281.913 325.718 288.784C329.531 295.289 333.303 301.818 337.035 308.37C338.797 311.412 343.836 319.115 344.602 322.693C344.904 324.107 341.426 330.007 340.336 331.225C339.663 331.977 338.335 332.032 337.333 332.076C330.36 332.186 323.317 332.137 316.346 332.129L275.348 332.04L174.386 332.046C158.136 332.068 141.471 331.883 125.261 332.134C126.23 335.035 129.905 340.805 131.54 343.689C135.306 350.339 139.4 356.991 143.02 363.717C146.682 364.08 156.842 363.86 160.967 363.878L198.152 363.959L314.625 363.974L394.326 363.821C406.705 363.8 422.392 363.28 434.545 363.882C431.699 368.339 428.628 373.858 425.929 378.464L405.98 412.969C404.133 416.154 397.746 427.808 395.85 429.663C393.416 430.361 381.704 430.067 378.282 430.059L345.904 430.019L191.196 429.992L133.817 430.052L115.701 430.101C111.817 430.114 107.757 430.238 103.903 429.929C101.228 426.263 96.4469 417.403 94.0794 413.276L75.222 380.4L52.8075 341.734C50.0791 336.999 44.2436 327.509 42.1705 322.884C43.1931 320.075 47.5142 312.914 49.2022 309.987L63.1031 285.905L70.401 273.248C71.6404 271.1 72.9496 268.707 74.3706 266.666C74.8379 265.994 75.5618 265.962 76.357 265.859Z"/><path fill="#1CEB09" transform="matrix(1.39139 -0.00813307 0.00813307 1.39139 0 4.06653)" d="M187.852 69.5053L265.844 69.459C280.784 69.4549 297.109 69.1178 311.959 69.5258C314.37 72.1675 320.133 83.1169 322.335 86.947L340.159 117.785C343.493 123.591 347.426 130.917 350.968 136.471C338.135 136.798 323.702 136.49 310.76 136.491L227.315 136.451C225.954 139.343 223.606 143.059 221.986 145.928C217.954 153.07 213.453 160.179 209.687 167.462C218.965 167.275 229.102 167.478 238.442 167.477L298.308 167.48L343.195 167.48C351.247 167.477 360.376 167.263 368.36 167.564C370.863 170.271 375.17 178.481 377.252 182.131L391.089 206.294L428.388 271.005C434.513 281.637 441.363 292.898 447.175 303.575C449.761 308.854 455.647 317.047 457.823 322.733C458.254 323.86 454.113 330.502 453.121 331.485C452.515 332.085 451.485 332.209 450.519 332.244C444.691 332.452 438.696 332.358 432.859 332.38L395.463 332.403C389.107 332.386 381.009 332.103 374.859 332.448C375.794 329.926 378.467 325.666 379.967 323.132C378.508 320.001 375.964 315.927 374.169 312.865L366.102 298.865L338.925 251.768C335.621 246.006 332.056 240.057 328.881 234.263C322.585 234.723 312.959 234.448 306.408 234.449L265.652 234.444L151.978 234.425L113.047 234.429C106.389 234.434 99.2129 234.271 92.6107 234.485C93.7828 231.855 95.6692 228.813 97.1378 226.273L104.577 213.383C113.631 197.45 122.784 181.574 132.036 165.754L172.999 94.7785C174.984 91.3327 186.155 71.1716 187.852 69.5053Z"/></svg>